<mxfile host="Electron" agent="Mozilla/5.0 (Windows NT 10.0; Win64; x64) AppleWebKit/537.36 (KHTML, like Gecko) draw.io/24.7.17 Chrome/128.0.6613.36 Electron/32.0.1 Safari/537.36" version="24.7.17">
  <diagram name="Page-1" id="O4971fxLYfwejmnZUnMx">
    <mxGraphModel dx="748" dy="494" grid="1" gridSize="10" guides="1" tooltips="1" connect="1" arrows="1" fold="1" page="1" pageScale="1" pageWidth="827" pageHeight="1169" math="0" shadow="0">
      <root>
        <mxCell id="0" />
        <mxCell id="1" parent="0" />
        <mxCell id="voe7DuV6FXqgvP0lRgNt-95" value="" style="shape=flexArrow;endArrow=classic;html=1;rounded=0;fillColor=#dae8fc;strokeColor=none;width=21.27659574468085;endSize=6.744680851063829;" edge="1" parent="1">
          <mxGeometry width="50" height="50" relative="1" as="geometry">
            <mxPoint x="280" y="240" as="sourcePoint" />
            <mxPoint x="380" y="240" as="targetPoint" />
          </mxGeometry>
        </mxCell>
        <mxCell id="voe7DuV6FXqgvP0lRgNt-93" value="" style="shape=flexArrow;endArrow=classic;html=1;rounded=0;exitX=0.9;exitY=0.5;exitDx=0;exitDy=0;exitPerimeter=0;fillColor=#dae8fc;strokeColor=none;width=21.27659574468085;endSize=6.744680851063829;entryX=0.5;entryY=1;entryDx=0;entryDy=0;entryPerimeter=0;" edge="1" parent="1" source="voe7DuV6FXqgvP0lRgNt-54" target="voe7DuV6FXqgvP0lRgNt-1">
          <mxGeometry width="50" height="50" relative="1" as="geometry">
            <mxPoint x="192" y="420" as="sourcePoint" />
            <mxPoint x="280" y="420" as="targetPoint" />
            <Array as="points">
              <mxPoint x="260" y="440" />
            </Array>
          </mxGeometry>
        </mxCell>
        <mxCell id="voe7DuV6FXqgvP0lRgNt-92" value="" style="shape=flexArrow;endArrow=classic;html=1;rounded=0;exitX=0.9;exitY=0.5;exitDx=0;exitDy=0;exitPerimeter=0;fillColor=#dae8fc;strokeColor=none;width=21.27659574468085;endSize=6.744680851063829;" edge="1" parent="1" source="voe7DuV6FXqgvP0lRgNt-42" target="voe7DuV6FXqgvP0lRgNt-1">
          <mxGeometry width="50" height="50" relative="1" as="geometry">
            <mxPoint x="320" y="310" as="sourcePoint" />
            <mxPoint x="370" y="260" as="targetPoint" />
          </mxGeometry>
        </mxCell>
        <mxCell id="voe7DuV6FXqgvP0lRgNt-1" value="" style="verticalLabelPosition=bottom;shadow=0;dashed=0;align=center;html=1;verticalAlign=top;shape=mxgraph.electrical.abstract.multiplier;" vertex="1" parent="1">
          <mxGeometry x="240" y="220" width="40" height="40" as="geometry" />
        </mxCell>
        <mxCell id="voe7DuV6FXqgvP0lRgNt-2" value="" style="rounded=0;whiteSpace=wrap;html=1;fillColor=#ffe6cc;strokeColor=#d79b00;" vertex="1" parent="1">
          <mxGeometry x="120" y="230" width="10" height="10" as="geometry" />
        </mxCell>
        <mxCell id="voe7DuV6FXqgvP0lRgNt-3" value="" style="rounded=0;whiteSpace=wrap;html=1;fillColor=#ffe6cc;strokeColor=#d79b00;" vertex="1" parent="1">
          <mxGeometry x="120" y="220" width="10" height="10" as="geometry" />
        </mxCell>
        <mxCell id="voe7DuV6FXqgvP0lRgNt-4" value="" style="rounded=0;whiteSpace=wrap;html=1;fillColor=#ffe6cc;strokeColor=#d79b00;" vertex="1" parent="1">
          <mxGeometry x="120" y="210" width="10" height="10" as="geometry" />
        </mxCell>
        <mxCell id="voe7DuV6FXqgvP0lRgNt-5" value="" style="rounded=0;whiteSpace=wrap;html=1;fillColor=#ffe6cc;strokeColor=#d79b00;" vertex="1" parent="1">
          <mxGeometry x="120" y="200" width="10" height="10" as="geometry" />
        </mxCell>
        <mxCell id="voe7DuV6FXqgvP0lRgNt-6" value="" style="rounded=0;whiteSpace=wrap;html=1;fillColor=#ffe6cc;strokeColor=#d79b00;" vertex="1" parent="1">
          <mxGeometry x="120" y="190" width="10" height="10" as="geometry" />
        </mxCell>
        <mxCell id="voe7DuV6FXqgvP0lRgNt-7" value="" style="rounded=0;whiteSpace=wrap;html=1;fillColor=#ffe6cc;strokeColor=#d79b00;" vertex="1" parent="1">
          <mxGeometry x="120" y="180" width="10" height="10" as="geometry" />
        </mxCell>
        <mxCell id="voe7DuV6FXqgvP0lRgNt-8" value="" style="rounded=0;whiteSpace=wrap;html=1;fillColor=#ffe6cc;strokeColor=#d79b00;" vertex="1" parent="1">
          <mxGeometry x="120" y="170" width="10" height="10" as="geometry" />
        </mxCell>
        <mxCell id="voe7DuV6FXqgvP0lRgNt-10" value="" style="rounded=0;whiteSpace=wrap;html=1;fillColor=#ffe6cc;strokeColor=#d79b00;" vertex="1" parent="1">
          <mxGeometry x="120" y="360" width="10" height="10" as="geometry" />
        </mxCell>
        <mxCell id="voe7DuV6FXqgvP0lRgNt-11" value="" style="rounded=0;whiteSpace=wrap;html=1;fillColor=#ffe6cc;strokeColor=#d79b00;" vertex="1" parent="1">
          <mxGeometry x="120" y="350" width="10" height="10" as="geometry" />
        </mxCell>
        <mxCell id="voe7DuV6FXqgvP0lRgNt-12" value="" style="rounded=0;whiteSpace=wrap;html=1;fillColor=#ffe6cc;strokeColor=#d79b00;" vertex="1" parent="1">
          <mxGeometry x="120" y="340" width="10" height="10" as="geometry" />
        </mxCell>
        <mxCell id="voe7DuV6FXqgvP0lRgNt-13" value="" style="rounded=0;whiteSpace=wrap;html=1;fillColor=#ffe6cc;strokeColor=#d79b00;" vertex="1" parent="1">
          <mxGeometry x="120" y="330" width="10" height="10" as="geometry" />
        </mxCell>
        <mxCell id="voe7DuV6FXqgvP0lRgNt-14" value="" style="rounded=0;whiteSpace=wrap;html=1;fillColor=#ffe6cc;strokeColor=#d79b00;" vertex="1" parent="1">
          <mxGeometry x="120" y="320" width="10" height="10" as="geometry" />
        </mxCell>
        <mxCell id="voe7DuV6FXqgvP0lRgNt-15" value="" style="rounded=0;whiteSpace=wrap;html=1;fillColor=#ffe6cc;strokeColor=#d79b00;" vertex="1" parent="1">
          <mxGeometry x="120" y="310" width="10" height="10" as="geometry" />
        </mxCell>
        <mxCell id="voe7DuV6FXqgvP0lRgNt-16" value="" style="rounded=0;whiteSpace=wrap;html=1;fillColor=#ffe6cc;strokeColor=#d79b00;" vertex="1" parent="1">
          <mxGeometry x="120" y="300" width="10" height="10" as="geometry" />
        </mxCell>
        <mxCell id="voe7DuV6FXqgvP0lRgNt-18" value="" style="rounded=0;whiteSpace=wrap;html=1;fillColor=#dae8fc;strokeColor=#6c8ebf;" vertex="1" parent="1">
          <mxGeometry x="120" y="290" width="10" height="10" as="geometry" />
        </mxCell>
        <mxCell id="voe7DuV6FXqgvP0lRgNt-19" value="" style="rounded=0;whiteSpace=wrap;html=1;fillColor=#dae8fc;strokeColor=#6c8ebf;" vertex="1" parent="1">
          <mxGeometry x="120" y="280" width="10" height="10" as="geometry" />
        </mxCell>
        <mxCell id="voe7DuV6FXqgvP0lRgNt-20" value="" style="rounded=0;whiteSpace=wrap;html=1;fillColor=#dae8fc;strokeColor=#6c8ebf;" vertex="1" parent="1">
          <mxGeometry x="120" y="270" width="10" height="10" as="geometry" />
        </mxCell>
        <mxCell id="voe7DuV6FXqgvP0lRgNt-21" value="" style="rounded=0;whiteSpace=wrap;html=1;fillColor=#dae8fc;strokeColor=#6c8ebf;" vertex="1" parent="1">
          <mxGeometry x="120" y="260" width="10" height="10" as="geometry" />
        </mxCell>
        <mxCell id="voe7DuV6FXqgvP0lRgNt-22" value="" style="rounded=0;whiteSpace=wrap;html=1;fillColor=#dae8fc;strokeColor=#6c8ebf;" vertex="1" parent="1">
          <mxGeometry x="120" y="250" width="10" height="10" as="geometry" />
        </mxCell>
        <mxCell id="voe7DuV6FXqgvP0lRgNt-23" value="" style="rounded=0;whiteSpace=wrap;html=1;fillColor=#dae8fc;strokeColor=#6c8ebf;" vertex="1" parent="1">
          <mxGeometry x="120" y="240" width="10" height="10" as="geometry" />
        </mxCell>
        <mxCell id="voe7DuV6FXqgvP0lRgNt-24" value="" style="rounded=0;whiteSpace=wrap;html=1;fillColor=#dae8fc;strokeColor=#6c8ebf;" vertex="1" parent="1">
          <mxGeometry x="120" y="160" width="10" height="10" as="geometry" />
        </mxCell>
        <mxCell id="voe7DuV6FXqgvP0lRgNt-25" value="" style="rounded=0;whiteSpace=wrap;html=1;fillColor=#dae8fc;strokeColor=#6c8ebf;" vertex="1" parent="1">
          <mxGeometry x="120" y="150" width="10" height="10" as="geometry" />
        </mxCell>
        <mxCell id="voe7DuV6FXqgvP0lRgNt-26" value="" style="rounded=0;whiteSpace=wrap;html=1;fillColor=#dae8fc;strokeColor=#6c8ebf;" vertex="1" parent="1">
          <mxGeometry x="120" y="140" width="10" height="10" as="geometry" />
        </mxCell>
        <mxCell id="voe7DuV6FXqgvP0lRgNt-27" value="" style="rounded=0;whiteSpace=wrap;html=1;fillColor=#dae8fc;strokeColor=#6c8ebf;" vertex="1" parent="1">
          <mxGeometry x="120" y="130" width="10" height="10" as="geometry" />
        </mxCell>
        <mxCell id="voe7DuV6FXqgvP0lRgNt-28" value="" style="rounded=0;whiteSpace=wrap;html=1;fillColor=#dae8fc;strokeColor=#6c8ebf;" vertex="1" parent="1">
          <mxGeometry x="120" y="120" width="10" height="10" as="geometry" />
        </mxCell>
        <mxCell id="voe7DuV6FXqgvP0lRgNt-29" value="" style="rounded=0;whiteSpace=wrap;html=1;fillColor=#dae8fc;strokeColor=#6c8ebf;" vertex="1" parent="1">
          <mxGeometry x="120" y="110" width="10" height="10" as="geometry" />
        </mxCell>
        <mxCell id="voe7DuV6FXqgvP0lRgNt-30" value="&lt;font face=&quot;Lucida Console&quot;&gt;a[6:0]&lt;/font&gt;" style="text;html=1;align=center;verticalAlign=middle;whiteSpace=wrap;rounded=0;" vertex="1" parent="1">
          <mxGeometry x="40" y="190" width="50" height="30" as="geometry" />
        </mxCell>
        <mxCell id="voe7DuV6FXqgvP0lRgNt-31" value="&lt;font face=&quot;Lucida Console&quot;&gt;b[6:0]&lt;/font&gt;" style="text;html=1;align=center;verticalAlign=middle;whiteSpace=wrap;rounded=0;" vertex="1" parent="1">
          <mxGeometry x="40" y="320" width="50" height="30" as="geometry" />
        </mxCell>
        <mxCell id="voe7DuV6FXqgvP0lRgNt-32" value="" style="shape=curlyBracket;whiteSpace=wrap;html=1;rounded=1;flipH=1;fontFamily=Courier New;direction=west;" vertex="1" parent="1">
          <mxGeometry x="90" y="300" width="20" height="70" as="geometry" />
        </mxCell>
        <mxCell id="voe7DuV6FXqgvP0lRgNt-33" value="" style="shape=curlyBracket;whiteSpace=wrap;html=1;rounded=1;flipH=1;fontFamily=Courier New;direction=west;" vertex="1" parent="1">
          <mxGeometry x="90" y="170" width="20" height="70" as="geometry" />
        </mxCell>
        <mxCell id="voe7DuV6FXqgvP0lRgNt-36" value="" style="shape=curlyBracket;whiteSpace=wrap;html=1;rounded=1;flipH=1;fontFamily=Courier New;direction=west;" vertex="1" parent="1">
          <mxGeometry x="90" y="240" width="20" height="60" as="geometry" />
        </mxCell>
        <mxCell id="voe7DuV6FXqgvP0lRgNt-37" value="&lt;font face=&quot;Helvetica&quot; style=&quot;font-size: 8px;&quot;&gt;sign extend&lt;/font&gt;" style="text;html=1;align=center;verticalAlign=middle;whiteSpace=wrap;rounded=0;" vertex="1" parent="1">
          <mxGeometry x="40" y="255" width="50" height="30" as="geometry" />
        </mxCell>
        <mxCell id="voe7DuV6FXqgvP0lRgNt-38" value="" style="shape=curlyBracket;whiteSpace=wrap;html=1;rounded=1;flipH=1;fontFamily=Courier New;direction=west;" vertex="1" parent="1">
          <mxGeometry x="90" y="110" width="20" height="60" as="geometry" />
        </mxCell>
        <mxCell id="voe7DuV6FXqgvP0lRgNt-39" value="&lt;font face=&quot;Helvetica&quot; style=&quot;font-size: 8px;&quot;&gt;sign extend&lt;/font&gt;" style="text;html=1;align=center;verticalAlign=middle;whiteSpace=wrap;rounded=0;" vertex="1" parent="1">
          <mxGeometry x="40" y="125" width="50" height="30" as="geometry" />
        </mxCell>
        <mxCell id="voe7DuV6FXqgvP0lRgNt-40" value="&lt;font face=&quot;Helvetica&quot; style=&quot;font-size: 8px;&quot;&gt;MSB&lt;/font&gt;" style="text;html=1;align=center;verticalAlign=middle;whiteSpace=wrap;rounded=0;" vertex="1" parent="1">
          <mxGeometry x="120" y="90" width="20" height="20" as="geometry" />
        </mxCell>
        <mxCell id="voe7DuV6FXqgvP0lRgNt-41" value="&lt;font face=&quot;Helvetica&quot; style=&quot;font-size: 8px;&quot;&gt;LSB&lt;/font&gt;" style="text;html=1;align=center;verticalAlign=middle;whiteSpace=wrap;rounded=0;" vertex="1" parent="1">
          <mxGeometry x="120" y="370" width="20" height="20" as="geometry" />
        </mxCell>
        <mxCell id="voe7DuV6FXqgvP0lRgNt-42" value="" style="shape=curlyBracket;whiteSpace=wrap;html=1;rounded=1;flipH=1;fontFamily=Courier New;" vertex="1" parent="1">
          <mxGeometry x="150" y="110" width="20" height="260" as="geometry" />
        </mxCell>
        <mxCell id="voe7DuV6FXqgvP0lRgNt-43" value="&lt;font face=&quot;Lucida Console&quot;&gt;A[25:0]&lt;/font&gt;" style="text;html=1;align=center;verticalAlign=middle;whiteSpace=wrap;rounded=0;" vertex="1" parent="1">
          <mxGeometry x="170" y="230" width="70" height="20" as="geometry" />
        </mxCell>
        <mxCell id="voe7DuV6FXqgvP0lRgNt-45" value="&lt;font face=&quot;Lucida Console&quot;&gt;B[17:0]&lt;/font&gt;" style="text;html=1;align=center;verticalAlign=middle;whiteSpace=wrap;rounded=0;" vertex="1" parent="1">
          <mxGeometry x="170" y="430" width="70" height="20" as="geometry" />
        </mxCell>
        <mxCell id="voe7DuV6FXqgvP0lRgNt-46" value="" style="rounded=0;whiteSpace=wrap;html=1;fillColor=#dae8fc;strokeColor=#6c8ebf;" vertex="1" parent="1">
          <mxGeometry x="120" y="460" width="10" height="10" as="geometry" />
        </mxCell>
        <mxCell id="voe7DuV6FXqgvP0lRgNt-47" value="" style="rounded=0;whiteSpace=wrap;html=1;fillColor=#dae8fc;strokeColor=#6c8ebf;" vertex="1" parent="1">
          <mxGeometry x="120" y="450" width="10" height="10" as="geometry" />
        </mxCell>
        <mxCell id="voe7DuV6FXqgvP0lRgNt-48" value="" style="rounded=0;whiteSpace=wrap;html=1;fillColor=#dae8fc;strokeColor=#6c8ebf;" vertex="1" parent="1">
          <mxGeometry x="120" y="440" width="10" height="10" as="geometry" />
        </mxCell>
        <mxCell id="voe7DuV6FXqgvP0lRgNt-49" value="" style="rounded=0;whiteSpace=wrap;html=1;fillColor=#dae8fc;strokeColor=#6c8ebf;" vertex="1" parent="1">
          <mxGeometry x="120" y="430" width="10" height="10" as="geometry" />
        </mxCell>
        <mxCell id="voe7DuV6FXqgvP0lRgNt-50" value="" style="rounded=0;whiteSpace=wrap;html=1;fillColor=#dae8fc;strokeColor=#6c8ebf;" vertex="1" parent="1">
          <mxGeometry x="120" y="420" width="10" height="10" as="geometry" />
        </mxCell>
        <mxCell id="voe7DuV6FXqgvP0lRgNt-51" value="" style="rounded=0;whiteSpace=wrap;html=1;fillColor=#dae8fc;strokeColor=#6c8ebf;" vertex="1" parent="1">
          <mxGeometry x="120" y="410" width="10" height="10" as="geometry" />
        </mxCell>
        <mxCell id="voe7DuV6FXqgvP0lRgNt-52" value="&lt;font face=&quot;Lucida Console&quot;&gt;c[5:0]&lt;/font&gt;" style="text;html=1;align=center;verticalAlign=middle;whiteSpace=wrap;rounded=0;" vertex="1" parent="1">
          <mxGeometry x="40" y="425" width="50" height="30" as="geometry" />
        </mxCell>
        <mxCell id="voe7DuV6FXqgvP0lRgNt-53" value="" style="shape=curlyBracket;whiteSpace=wrap;html=1;rounded=1;flipH=1;fontFamily=Courier New;direction=west;" vertex="1" parent="1">
          <mxGeometry x="90" y="410" width="20" height="60" as="geometry" />
        </mxCell>
        <mxCell id="voe7DuV6FXqgvP0lRgNt-54" value="" style="shape=curlyBracket;whiteSpace=wrap;html=1;rounded=1;flipH=1;fontFamily=Courier New;direction=east;" vertex="1" parent="1">
          <mxGeometry x="150" y="410" width="20" height="60" as="geometry" />
        </mxCell>
        <mxCell id="voe7DuV6FXqgvP0lRgNt-55" value="" style="rounded=0;whiteSpace=wrap;html=1;fillColor=#ffe6cc;strokeColor=#d79b00;" vertex="1" parent="1">
          <mxGeometry x="390" y="300" width="10" height="10" as="geometry" />
        </mxCell>
        <mxCell id="voe7DuV6FXqgvP0lRgNt-56" value="" style="rounded=0;whiteSpace=wrap;html=1;fillColor=#ffe6cc;strokeColor=#d79b00;" vertex="1" parent="1">
          <mxGeometry x="390" y="290" width="10" height="10" as="geometry" />
        </mxCell>
        <mxCell id="voe7DuV6FXqgvP0lRgNt-57" value="" style="rounded=0;whiteSpace=wrap;html=1;fillColor=#ffe6cc;strokeColor=#d79b00;" vertex="1" parent="1">
          <mxGeometry x="390" y="280" width="10" height="10" as="geometry" />
        </mxCell>
        <mxCell id="voe7DuV6FXqgvP0lRgNt-58" value="" style="rounded=0;whiteSpace=wrap;html=1;fillColor=#ffe6cc;strokeColor=#d79b00;" vertex="1" parent="1">
          <mxGeometry x="390" y="270" width="10" height="10" as="geometry" />
        </mxCell>
        <mxCell id="voe7DuV6FXqgvP0lRgNt-59" value="" style="rounded=0;whiteSpace=wrap;html=1;fillColor=#ffe6cc;strokeColor=#d79b00;" vertex="1" parent="1">
          <mxGeometry x="390" y="260" width="10" height="10" as="geometry" />
        </mxCell>
        <mxCell id="voe7DuV6FXqgvP0lRgNt-60" value="" style="rounded=0;whiteSpace=wrap;html=1;fillColor=#ffe6cc;strokeColor=#d79b00;" vertex="1" parent="1">
          <mxGeometry x="390" y="250" width="10" height="10" as="geometry" />
        </mxCell>
        <mxCell id="voe7DuV6FXqgvP0lRgNt-61" value="" style="rounded=0;whiteSpace=wrap;html=1;fillColor=#ffe6cc;strokeColor=#d79b00;" vertex="1" parent="1">
          <mxGeometry x="390" y="240" width="10" height="10" as="geometry" />
        </mxCell>
        <mxCell id="voe7DuV6FXqgvP0lRgNt-62" value="" style="rounded=0;whiteSpace=wrap;html=1;fillColor=#dae8fc;strokeColor=#6c8ebf;" vertex="1" parent="1">
          <mxGeometry x="390" y="360" width="10" height="10" as="geometry" />
        </mxCell>
        <mxCell id="voe7DuV6FXqgvP0lRgNt-63" value="" style="rounded=0;whiteSpace=wrap;html=1;fillColor=#dae8fc;strokeColor=#6c8ebf;" vertex="1" parent="1">
          <mxGeometry x="390" y="350" width="10" height="10" as="geometry" />
        </mxCell>
        <mxCell id="voe7DuV6FXqgvP0lRgNt-64" value="" style="rounded=0;whiteSpace=wrap;html=1;fillColor=#dae8fc;strokeColor=#6c8ebf;" vertex="1" parent="1">
          <mxGeometry x="390" y="340" width="10" height="10" as="geometry" />
        </mxCell>
        <mxCell id="voe7DuV6FXqgvP0lRgNt-65" value="" style="rounded=0;whiteSpace=wrap;html=1;fillColor=#dae8fc;strokeColor=#6c8ebf;" vertex="1" parent="1">
          <mxGeometry x="390" y="330" width="10" height="10" as="geometry" />
        </mxCell>
        <mxCell id="voe7DuV6FXqgvP0lRgNt-66" value="" style="rounded=0;whiteSpace=wrap;html=1;fillColor=#dae8fc;strokeColor=#6c8ebf;" vertex="1" parent="1">
          <mxGeometry x="390" y="320" width="10" height="10" as="geometry" />
        </mxCell>
        <mxCell id="voe7DuV6FXqgvP0lRgNt-67" value="" style="rounded=0;whiteSpace=wrap;html=1;fillColor=#dae8fc;strokeColor=#6c8ebf;" vertex="1" parent="1">
          <mxGeometry x="390" y="310" width="10" height="10" as="geometry" />
        </mxCell>
        <mxCell id="voe7DuV6FXqgvP0lRgNt-68" value="" style="rounded=0;whiteSpace=wrap;html=1;fillColor=#dae8fc;strokeColor=#6c8ebf;" vertex="1" parent="1">
          <mxGeometry x="390" y="230" width="10" height="10" as="geometry" />
        </mxCell>
        <mxCell id="voe7DuV6FXqgvP0lRgNt-69" value="" style="rounded=0;whiteSpace=wrap;html=1;fillColor=#dae8fc;strokeColor=#6c8ebf;" vertex="1" parent="1">
          <mxGeometry x="390" y="220" width="10" height="10" as="geometry" />
        </mxCell>
        <mxCell id="voe7DuV6FXqgvP0lRgNt-70" value="" style="rounded=0;whiteSpace=wrap;html=1;fillColor=#dae8fc;strokeColor=#6c8ebf;" vertex="1" parent="1">
          <mxGeometry x="390" y="210" width="10" height="10" as="geometry" />
        </mxCell>
        <mxCell id="voe7DuV6FXqgvP0lRgNt-71" value="" style="rounded=0;whiteSpace=wrap;html=1;fillColor=#dae8fc;strokeColor=#6c8ebf;" vertex="1" parent="1">
          <mxGeometry x="390" y="200" width="10" height="10" as="geometry" />
        </mxCell>
        <mxCell id="voe7DuV6FXqgvP0lRgNt-72" value="" style="rounded=0;whiteSpace=wrap;html=1;fillColor=#dae8fc;strokeColor=#6c8ebf;" vertex="1" parent="1">
          <mxGeometry x="390" y="190" width="10" height="10" as="geometry" />
        </mxCell>
        <mxCell id="voe7DuV6FXqgvP0lRgNt-73" value="" style="rounded=0;whiteSpace=wrap;html=1;fillColor=#dae8fc;strokeColor=#6c8ebf;" vertex="1" parent="1">
          <mxGeometry x="390" y="180" width="10" height="10" as="geometry" />
        </mxCell>
        <mxCell id="voe7DuV6FXqgvP0lRgNt-77" value="" style="rounded=0;whiteSpace=wrap;html=1;fillColor=#ffe6cc;strokeColor=#d79b00;" vertex="1" parent="1">
          <mxGeometry x="390" y="170" width="10" height="10" as="geometry" />
        </mxCell>
        <mxCell id="voe7DuV6FXqgvP0lRgNt-78" value="" style="rounded=0;whiteSpace=wrap;html=1;fillColor=#ffe6cc;strokeColor=#d79b00;" vertex="1" parent="1">
          <mxGeometry x="390" y="160" width="10" height="10" as="geometry" />
        </mxCell>
        <mxCell id="voe7DuV6FXqgvP0lRgNt-79" value="" style="rounded=0;whiteSpace=wrap;html=1;fillColor=#ffe6cc;strokeColor=#d79b00;" vertex="1" parent="1">
          <mxGeometry x="390" y="150" width="10" height="10" as="geometry" />
        </mxCell>
        <mxCell id="voe7DuV6FXqgvP0lRgNt-80" value="" style="rounded=0;whiteSpace=wrap;html=1;fillColor=#ffe6cc;strokeColor=#d79b00;" vertex="1" parent="1">
          <mxGeometry x="390" y="140" width="10" height="10" as="geometry" />
        </mxCell>
        <mxCell id="voe7DuV6FXqgvP0lRgNt-81" value="" style="rounded=0;whiteSpace=wrap;html=1;fillColor=#ffe6cc;strokeColor=#d79b00;" vertex="1" parent="1">
          <mxGeometry x="390" y="130" width="10" height="10" as="geometry" />
        </mxCell>
        <mxCell id="voe7DuV6FXqgvP0lRgNt-82" value="" style="rounded=0;whiteSpace=wrap;html=1;fillColor=#ffe6cc;strokeColor=#d79b00;" vertex="1" parent="1">
          <mxGeometry x="390" y="120" width="10" height="10" as="geometry" />
        </mxCell>
        <mxCell id="voe7DuV6FXqgvP0lRgNt-83" value="" style="rounded=0;whiteSpace=wrap;html=1;fillColor=#ffe6cc;strokeColor=#d79b00;" vertex="1" parent="1">
          <mxGeometry x="390" y="110" width="10" height="10" as="geometry" />
        </mxCell>
        <mxCell id="voe7DuV6FXqgvP0lRgNt-84" value="&lt;font face=&quot;Lucida Console&quot;&gt;M[43:0]&lt;/font&gt;" style="text;html=1;align=center;verticalAlign=middle;whiteSpace=wrap;rounded=0;" vertex="1" parent="1">
          <mxGeometry x="280" y="230" width="70" height="20" as="geometry" />
        </mxCell>
        <mxCell id="voe7DuV6FXqgvP0lRgNt-85" value="" style="shape=curlyBracket;whiteSpace=wrap;html=1;rounded=1;flipH=1;fontFamily=Courier New;direction=west;" vertex="1" parent="1">
          <mxGeometry x="350" y="90" width="20" height="280" as="geometry" />
        </mxCell>
        <mxCell id="voe7DuV6FXqgvP0lRgNt-86" value="&lt;font face=&quot;Lucida Console&quot;&gt;...&lt;/font&gt;" style="text;html=1;align=center;verticalAlign=middle;whiteSpace=wrap;rounded=0;rotation=90;" vertex="1" parent="1">
          <mxGeometry x="385" y="85" width="30" height="20" as="geometry" />
        </mxCell>
        <mxCell id="voe7DuV6FXqgvP0lRgNt-87" value="&lt;font face=&quot;Helvetica&quot; style=&quot;font-size: 8px;&quot;&gt;LSB&lt;/font&gt;" style="text;html=1;align=center;verticalAlign=middle;whiteSpace=wrap;rounded=0;" vertex="1" parent="1">
          <mxGeometry x="390" y="370" width="20" height="20" as="geometry" />
        </mxCell>
        <mxCell id="voe7DuV6FXqgvP0lRgNt-88" value="&lt;font face=&quot;Helvetica&quot; style=&quot;font-size: 8px;&quot;&gt;MSB&lt;/font&gt;" style="text;html=1;align=center;verticalAlign=middle;whiteSpace=wrap;rounded=0;" vertex="1" parent="1">
          <mxGeometry x="390" y="65" width="20" height="20" as="geometry" />
        </mxCell>
        <mxCell id="voe7DuV6FXqgvP0lRgNt-99" value="" style="shape=curlyBracket;whiteSpace=wrap;html=1;rounded=1;flipH=1;fontFamily=Courier New;direction=east;" vertex="1" parent="1">
          <mxGeometry x="410" y="110" width="20" height="70" as="geometry" />
        </mxCell>
        <mxCell id="voe7DuV6FXqgvP0lRgNt-100" value="" style="shape=curlyBracket;whiteSpace=wrap;html=1;rounded=1;flipH=1;fontFamily=Courier New;direction=east;" vertex="1" parent="1">
          <mxGeometry x="410" y="240" width="20" height="70" as="geometry" />
        </mxCell>
        <mxCell id="voe7DuV6FXqgvP0lRgNt-101" value="&lt;font face=&quot;Lucida Console&quot;&gt;y[6:0]&lt;/font&gt;" style="text;html=1;align=center;verticalAlign=middle;whiteSpace=wrap;rounded=0;" vertex="1" parent="1">
          <mxGeometry x="430" y="130" width="50" height="30" as="geometry" />
        </mxCell>
        <mxCell id="voe7DuV6FXqgvP0lRgNt-102" value="&lt;font face=&quot;Lucida Console&quot;&gt;z[6:0]&lt;/font&gt;" style="text;html=1;align=center;verticalAlign=middle;whiteSpace=wrap;rounded=0;" vertex="1" parent="1">
          <mxGeometry x="430" y="260" width="50" height="30" as="geometry" />
        </mxCell>
        <mxCell id="voe7DuV6FXqgvP0lRgNt-103" value="&lt;font face=&quot;Helvetica&quot; style=&quot;font-size: 8px;&quot;&gt;DSP48&lt;/font&gt;" style="text;html=1;align=center;verticalAlign=middle;whiteSpace=wrap;rounded=0;" vertex="1" parent="1">
          <mxGeometry x="240" y="200" width="40" height="20" as="geometry" />
        </mxCell>
      </root>
    </mxGraphModel>
  </diagram>
</mxfile>
